<?xml version="1.0" encoding="UTF-8"?> <svg xmlns="http://www.w3.org/2000/svg" xmlns:xlink="http://www.w3.org/1999/xlink" id="Layer_1" x="0px" y="0px" viewBox="0 0 300 100" style="enable-background:new 0 0 300 100;" xml:space="preserve"><style type="text/css"> .st0{fill:url(#SVGID_1_);} .st1{fill:url(#SVGID_00000090280075669189654070000001981366818261795761_);} .st2{fill:#59595B;} .st3{fill:#BBBCC0;} .st4{fill:#221F1F;} .st5{fill:#020205;} .st6{fill:#F7CE0E;} .st7{fill:#9C9B9D;}</style><linearGradient id="SVGID_1_" gradientUnits="userSpaceOnUse" x1="18.2772" y1="65.6365" x2="52.78" y2="10.5312"> <stop offset="0" style="stop-color:#F6E100"></stop> <stop offset="1" style="stop-color:#F59A21"></stop></linearGradient><polygon class="st0" points="43.19,7.63 5,69.36 27.35,69.36 65.61,7.55 "></polygon><linearGradient id="SVGID_00000026878294906773738060000007983525916096734357_" gradientUnits="userSpaceOnUse" x1="44.876" y1="65.9541" x2="79.3788" y2="10.8488"> <stop offset="0" style="stop-color:#F6E100"></stop> <stop offset="1" style="stop-color:#F59A21"></stop></linearGradient><polygon style="fill:url(#SVGID_00000026878294906773738060000007983525916096734357_);" points="69.79,7.94 31.6,69.68 53.95,69.68 92.21,7.87 "></polygon><path class="st2" d="M11.53,7.81c5.75,0,11.51-0.03,17.26,0.02c-0.02,5.73,0,11.46-0.01,17.18c0.03,0.32-0.2,0.56-0.33,0.82 c-5.65,9.08-11.24,18.21-16.92,27.28C11.53,38.01,11.53,22.91,11.53,7.81L11.53,7.81z"></path><path class="st3" d="M80.43,26.38c3.79-6.21,7.58-12.42,11.38-18.62c4.81,8.21,9.59,16.44,14.34,24.68c-7.4,0.01-14.8,0.01-22.2,0 C82.77,30.43,81.62,28.39,80.43,26.38L80.43,26.38z"></path><path class="st2" d="M145.58,19.27c3.93-2.04,7.8-4.19,11.75-6.2c-0.54,4.4-1.09,8.79-1.66,13.19c-0.81-0.55-1.61-1.12-2.42-1.66 c-2.4,3.98-4.77,7.98-7.17,11.96c-1.66-1.14-3.3-2.31-4.91-3.53c-2.69,3.96-5.17,8.07-7.74,12.11c-1.71,2.8-3.53,5.54-5.24,8.35 c-1.19,1.8-2.29,3.67-3.43,5.52c-1.98,3.25-3.98,6.5-5.89,9.79c-2.46,0.03-4.92,0-7.38,0.01c3.14-5,6.36-9.96,9.52-14.95 c1.14-1.81,2.3-3.62,3.44-5.44c5.06-8.02,10.03-16.09,15.06-24.13c1.58,1.13,3.16,2.28,4.74,3.43c1.32-2.21,2.67-4.4,3.95-6.63 C147.32,20.49,146.42,19.91,145.58,19.27L145.58,19.27z"></path><path class="st4" d="M83.95,35.67c8.25,0,16.51,0,24.76,0c0.01,2-0.01,4,0.01,5.99c-5.9,0.06-11.81-0.02-17.71,0.04 c0.03,2.33,0.01,4.66,0.01,6.99c5.46,0.01,10.92,0,16.38,0c0,1.97,0.01,3.93,0,5.9c-5.46,0.01-10.92-0.01-16.38,0.01 c0.02,2.91,0,5.82,0.01,8.73c6.16,0.01,12.33,0,18.49,0c0,1.99,0,3.97,0,5.95c-8.52,0-17.05,0-25.57,0 C83.95,58.09,83.95,46.88,83.95,35.67L83.95,35.67z"></path><path class="st5" d="M112.08,39.27c2.45-0.01,4.91,0,7.36,0c1.68,3.05,3.33,6.11,4.99,9.16c-1.14,1.82-2.29,3.62-3.44,5.44 C118.02,49.01,115.04,44.15,112.08,39.27L112.08,39.27z"></path><path class="st4" d="M168.84,39.27c7.24,0,14.48,0,21.72,0c0,1.75-0.01,3.51,0.01,5.26c-5.18,0.03-10.35,0-15.52,0.01 c0,2.07-0.01,4.14,0,6.21c4.8,0,9.6,0,14.39,0c0,1.72,0,3.43,0,5.15c-4.79-0.01-9.58,0.02-14.37-0.01c-0.05,2.55-0.01,5.1-0.02,7.65 c5.4,0,10.79,0.01,16.18-0.01c0.03,1.76,0,3.52,0.01,5.28c-7.47,0-14.94,0-22.4,0C168.84,58.96,168.84,49.12,168.84,39.27 L168.84,39.27z"></path><path class="st4" d="M225.37,39.27c2.07,0,4.15-0.02,6.22,0.01c-0.04,9.85,0.03,19.69-0.03,29.54c-2.06-0.04-4.12,0-6.18-0.02 C225.37,58.96,225.37,49.12,225.37,39.27L225.37,39.27z"></path><path class="st4" d="M40.75,44.35c0.48-1.5,2.13-2.4,3.66-2.15c1.28,0.22,2.36,1.23,2.65,2.49c0.42,1.71-0.71,3.53-2.41,3.96 c-1.28,0.27-2.65-0.19-3.46-1.23C40.6,46.53,40.38,45.38,40.75,44.35L40.75,44.35z"></path><path class="st4" d="M57.75,42.27c1.77-0.52,3.79,0.7,4.08,2.54c0.46,1.94-1.2,4.02-3.21,3.9c-1.71,0.08-3.24-1.42-3.28-3.11 C55.23,44.11,56.3,42.64,57.75,42.27L57.75,42.27z"></path><path class="st4" d="M264.21,51.29c-0.42-3.93-2.23-7.83-5.45-10.23c-3.06-2.33-7.11-2.92-10.85-2.46c-1.69,0.21-3.36,0.7-4.85,1.52 c-3.21,1.76-5.48,4.98-6.39,8.49c-0.84,3.22-0.89,6.63-0.29,9.9c0.72,3.84,2.99,7.48,6.46,9.4c3.44,1.93,7.63,2.14,11.41,1.3 c3.65-0.83,6.78-3.42,8.42-6.76C264.38,59.02,264.58,55.05,264.21,51.29z M257.17,59.72c-0.81,1.96-2.4,3.66-4.46,4.29 c-2.25,0.68-4.86,0.49-6.84-0.85c-2.01-1.37-3.08-3.75-3.45-6.09c-0.42-2.74-0.32-5.62,0.63-8.25c0.8-2.2,2.53-4.16,4.84-4.78 c2.48-0.68,5.42-0.27,7.31,1.57c1.76,1.66,2.57,4.07,2.83,6.42C258.28,54.61,258.19,57.3,257.17,59.72z"></path><path class="st4" d="M164.08,47.6c-0.12-2.34-1.03-4.78-2.94-6.23c-2.02-1.61-4.69-2.04-7.2-2.09c-4.18,0-8.35,0-12.53,0 c0,9.85,0,19.69,0,29.54c2.07,0,4.14,0,6.2,0c0-3.47,0-6.94,0-10.41c2.69-0.22,5.39,0.07,8.08-0.17c2.45-0.23,4.98-1.2,6.53-3.19 C163.85,52.95,164.24,50.17,164.08,47.6z M156.48,52.13c-0.99,0.78-2.29,1.01-3.52,1.04c-1.78,0-3.56,0-5.34,0 c0.01-2.92-0.02-5.84,0.02-8.76c2.18,0.08,4.37-0.12,6.55,0.13c1.57,0.16,3.18,1.12,3.55,2.76 C158.07,48.95,157.88,50.99,156.48,52.13z"></path><path class="st4" d="M220.97,68.03c-0.7-0.35-1.18-1.02-1.21-1.81c-0.23-2.32-0.1-4.67-0.31-6.99c-0.19-2-1.49-3.89-3.42-4.55 c1.38-0.62,2.69-1.53,3.46-2.86c1.09-1.9,1.21-4.23,0.8-6.34c-0.57-2.67-2.75-4.79-5.3-5.61c-2.14-0.76-4.45-0.58-6.69-0.6 c-4.03,0-8.05,0.01-12.08-0.01c-0.02,9.85-0.03,19.71,0.01,29.56c2.06-0.03,4.12,0,6.19-0.02c0-3.86,0-7.73,0-11.6 c2.13,0,4.26-0.01,6.4,0c1.19,0.07,2.47,0.14,3.48,0.86c0.89,0.68,1.14,1.85,1.17,2.91c0.02,2.61-0.05,5.26,0.58,7.82 c2.31,0.01,4.62,0.01,6.93,0.01C220.97,68.61,220.97,68.22,220.97,68.03z M213.14,51.16c-0.85,0.74-2.02,0.94-3.11,1.01 c-2.54,0.02-5.07-0.01-7.61,0.01c-0.03-2.59,0-5.18-0.01-7.76c2.6,0.02,5.21-0.03,7.81,0.02c1.49,0.05,3.22,0.64,3.76,2.17 C214.51,48.11,214.42,50.07,213.14,51.16z"></path><path class="st4" d="M293.99,68.04c-0.61-0.33-1.09-0.89-1.17-1.59c-0.31-2.47-0.1-4.97-0.38-7.44c-0.22-1.93-1.56-3.67-3.39-4.33 c1.32-0.58,2.58-1.42,3.35-2.67c1.19-1.9,1.32-4.29,0.93-6.45c-0.52-2.63-2.63-4.75-5.11-5.62c-2.14-0.81-4.46-0.66-6.7-0.67 c-4.09,0-8.18,0-12.27,0c0,9.84,0,19.69,0,29.54c2.07,0,4.14,0,6.2,0c0.01-3.87-0.01-7.74,0.01-11.61c1.6,0,3.21,0,4.82,0 c1.57,0.01,3.25-0.09,4.7,0.65c0.96,0.49,1.4,1.6,1.46,2.63c0.18,2.78-0.16,5.66,0.69,8.35c2.29-0.05,4.59-0.01,6.88-0.02 C294.01,68.62,294,68.23,293.99,68.04z M285.2,51.75c-1.24,0.51-2.61,0.43-3.92,0.43c-1.94,0-3.89,0-5.83,0 c-0.02-2.57,0.03-5.15-0.02-7.72c1.87-0.08,3.75-0.01,5.62-0.03c1.42,0.01,2.9-0.11,4.24,0.45 C288.06,45.97,288.01,50.72,285.2,51.75z"></path><path class="st4" d="M39.66,49.88c1.4-0.11,2.81-0.03,4.22-0.06c1.27,0.02,2.55-0.04,3.83,0.02c0.31-0.01,0.57,0.21,0.68,0.48 c0.91,1.74,1.78,3.49,2.66,5.24c1.36-1.76,2.69-3.54,4.05-5.29c0.38-0.62,1.18-0.43,1.79-0.46c1.56,0.04,3.12-0.06,4.68,0.05 c1.06,0.82,1.7,2.08,2.59,3.08c1.01,1.32,2.06,2.62,3.06,3.95c0.33,0.35,0.2,0.83,0.22,1.26c1.13,0.4,2.09,1.41,3.35,1.29 c0.91,0.04,1.85-0.12,2.75,0.08c1.26,0.57,2.49,1.24,3.72,1.88c0.66,0.25,0.45,1.36-0.25,1.4c-1.21-0.2-2.32-0.77-3.48-1.12 c0.4,1.48,0.79,2.98,1.21,4.46c-0.44,0-0.88,0-1.32,0c0,1.01-0.06,2.03-0.09,3.04c-0.1,0.68-1.13,0.75-1.38,0.14 c-0.13-0.64-0.17-1.3-0.22-1.95c-0.12-0.19,0.14-0.75-0.1-0.82c-0.13,0.91-0.14,1.84-0.31,2.75c-0.18,0.57-1.14,0.63-1.34,0.03 c-0.15-1.05-0.12-2.12-0.12-3.17c-0.44,0-0.89,0-1.33,0c0.39-1.5,0.77-2.99,1.17-4.49c-1.4-1.11-2.82-2.17-4.21-3.28 c-1.03-1.16-2.07-2.32-3.05-3.53c0.03,0.39-0.01,0.78-0.1,1.16c0.38,1.79,0.84,3.56,1.21,5.35c-0.78,0-1.55,0-2.33,0 c0.14,2.35,0.15,4.7,0.26,7.05c0.08,0.57-0.3,1.17-0.87,1.29c-0.62,0.18-1.35-0.32-1.38-0.97c-0.21-2.01-0.38-4.02-0.58-6.02 c-0.28,1.64-0.32,3.31-0.5,4.96c-0.1,0.64,0.05,1.51-0.61,1.89c-0.6,0.42-1.55,0.08-1.69-0.65c-0.07-0.77-0.01-1.55,0-2.33 c0.09-1.72,0.07-3.45,0.18-5.17c-0.78,0-1.55,0-2.33-0.01c0.5-2.34,1.05-4.66,1.53-7c-1.23,1.33-2.35,2.76-3.56,4.1 c-0.52,0.67-1.66,0.53-2.03-0.22c-0.81-1.42-1.44-2.94-2.31-4.33c-0.12,1.59-0.45,3.18-0.41,4.78c0.34,3.07,0.73,6.14,1.07,9.21 c0.12,0.64-0.24,1.23-0.73,1.61c-0.58,0.27-1.28,0.25-1.83-0.09c-0.26-0.31-0.53-0.64-0.57-1.06c-0.35-2.44-0.55-4.89-0.95-7.32 c-0.31,2.36-0.57,4.73-0.85,7.09c-0.03,0.38-0.17,0.74-0.39,1.05c-0.52,0.68-1.55,0.66-2.23,0.24c-0.36-0.42-0.63-0.94-0.53-1.51 c0.29-3.07,0.69-6.14,1.02-9.21c0.05-1.21-0.22-2.4-0.32-3.6c-0.04-0.41-0.09-0.82-0.13-1.22c-0.87,1.51-1.55,3.12-2.41,4.63 c-0.96,1.23-2.31,2.1-3.28,3.31c-0.18,1.01-0.39,2.04-0.29,3.07c0.14,1.32,0.38,2.63,0.45,3.96c-0.04,0.14-0.13,0.44-0.18,0.58 c-0.43,0.35-1,0.32-1.44,0.01c-0.24-0.63-0.33-1.31-0.44-1.97c-0.07-0.39-0.15-0.78-0.23-1.17c-0.14,0.67-0.26,1.34-0.37,2.01 c-0.09,0.37-0.2,0.74-0.31,1.11c-0.54,0.49-1.56,0.27-1.63-0.51c0.07-1.62,0.45-3.21,0.5-4.82c-0.08-0.77-0.2-1.53-0.31-2.3 c-0.77,0.48-1.46,1.09-2.25,1.54c-0.47,0.19-0.85-0.18-0.91-0.63c0.27-0.61,0.86-0.98,1.3-1.44c0.73-0.62,1.32-1.42,2.17-1.91 c0.98-0.09,1.96-0.01,2.94-0.02c0.8,0.14,1.51-0.16,2.09-0.71c-0.03-0.37-0.24-0.76-0.05-1.12c0.93-2.09,2.04-4.09,2.97-6.18 C39.08,50.88,39.35,50.36,39.66,49.88L39.66,49.88z"></path><path class="st5" d="M124.75,59c1.13-1.84,2.23-3.71,3.43-5.52c3.24,5.08,6.42,10.21,9.61,15.33c-2.48,0-4.96,0-7.45,0 C128.47,65.54,126.61,62.27,124.75,59L124.75,59z"></path><path class="st6" d="M47.33,53.96c0.87,1.39,1.51,2.91,2.31,4.33c0.37,0.75,1.52,0.88,2.03,0.22c1.21-1.34,2.33-2.77,3.56-4.1 c-0.48,2.34-1.03,4.67-1.53,7c0.78,0,1.55,0.01,2.33,0.01c-0.1,1.72-0.09,3.45-0.18,5.17c-0.63,0.97-1.23,1.96-1.82,2.96 c-2.26,0.01-4.52-0.02-6.78,0.01c0.49-0.38,0.85-0.97,0.73-1.61c-0.34-3.07-0.73-6.14-1.07-9.21 C46.88,57.14,47.21,55.55,47.33,53.96L47.33,53.96z"></path><path class="st4" d="M31.67,55.15c1.17-0.78,2.94,0.19,2.83,1.62c0.05,1.37-1.63,2.29-2.78,1.58 C30.52,57.73,30.48,55.81,31.67,55.15L31.67,55.15z"></path><path class="st4" d="M70.66,55.17c1.18-0.52,2.67,0.54,2.5,1.84c0.04,1.46-1.92,2.29-2.99,1.35C69.05,57.57,69.34,55.59,70.66,55.17 L70.66,55.17z"></path><path class="st6" d="M40.6,55.15c0.1,1.2,0.37,2.39,0.32,3.6c-0.33,3.07-0.72,6.14-1.02,9.21c-0.1,0.57,0.17,1.09,0.53,1.51 c-1.89,0.04-3.78,0.02-5.66,0.01c0.04-0.14,0.13-0.44,0.18-0.58c-0.07-1.33-0.31-2.64-0.45-3.96C36.58,61.71,38.53,58.4,40.6,55.15 L40.6,55.15z"></path><path class="st6" d="M43.05,68.19c0.29-2.36,0.55-4.73,0.85-7.09c0.4,2.43,0.6,4.89,0.95,7.32c0.04,0.42,0.31,0.75,0.57,1.06 c-0.98,0.02-1.95,0.01-2.93,0.01l0.16-0.26C42.88,68.93,43.02,68.56,43.05,68.19L43.05,68.19z"></path><path class="st6" d="M32.88,67.52c0.11,0.66,0.2,1.34,0.44,1.97c-0.45,0-0.9,0-1.35-0.02c0.11-0.37,0.22-0.73,0.31-1.11 C32.61,68.2,32.71,67.82,32.88,67.52L32.88,67.52z"></path><path class="st7" d="M5.2,75.39c96.57,0,193.13-0.01,289.7,0.01c-0.01,0.31-0.01,0.62-0.01,0.93c-96.56,0.01-193.12,0-289.67,0 C5.2,76.01,5.2,75.7,5.2,75.39L5.2,75.39z"></path><path class="st4" d="M6.26,82.15c2.28,0.01,4.56-0.02,6.83,0.02c0,0.41-0.01,0.82-0.01,1.23c-1.82,0-3.64,0-5.46,0 c0,1.03,0,2.07,0,3.1c1.57,0,3.14,0,4.71,0c0,0.41,0,0.82,0,1.24c-1.57,0-3.14,0-4.71,0c-0.01,1.51,0,3.02-0.01,4.53 c-0.45,0-0.91,0-1.36,0C6.26,88.89,6.25,85.52,6.26,82.15L6.26,82.15z"></path><path class="st4" d="M22.89,82.14c0.46,0,0.92,0.01,1.38,0.03c-0.04,3.36,0,6.73-0.02,10.09c-0.46,0-0.91,0-1.37,0 C22.89,88.89,22.88,85.52,22.89,82.14L22.89,82.14z"></path><path class="st4" d="M34.49,82.15c0.47,0,0.95,0.01,1.42,0.02c1.71,2.55,3.37,5.13,5.14,7.64c0.04-2.55,0-5.11,0.02-7.66 c0.45,0,0.91,0,1.36,0c0,3.37,0,6.74,0,10.11c-0.48,0-0.95,0-1.42,0.01c-1.75-2.6-3.47-5.21-5.22-7.81c0,2.6,0,5.21,0,7.81 c-0.43,0-0.87,0-1.3,0C34.49,88.89,34.49,85.52,34.49,82.15L34.49,82.15z"></path><path class="st4" d="M69.8,82.15c0.47,0,0.94,0,1.41,0c1.73,2.61,3.49,5.2,5.23,7.81c0.01-2.6,0-5.21,0-7.81c0.43,0,0.86,0,1.3,0 c0,3.37,0,6.74,0,10.12c-0.47,0-0.94,0-1.41,0c-1.73-2.6-3.44-5.21-5.22-7.77c-0.01,2.59,0,5.18,0,7.78c-0.44,0-0.87,0-1.3,0 C69.8,88.89,69.8,85.52,69.8,82.15L69.8,82.15z"></path><path class="st4" d="M89.55,82.74c1.76-1.09,4.43-1.08,5.84,0.57c0.43,0.47,0.66,1.07,0.88,1.66c-0.46,0.1-0.92,0.21-1.38,0.31 c-0.3-0.66-0.59-1.39-1.26-1.74c-1.47-0.8-3.63-0.22-4.28,1.39c-0.66,1.62-0.63,3.6,0.31,5.11c0.98,1.37,3.2,1.62,4.42,0.44 c0.52-0.47,0.74-1.15,0.94-1.8c0.46,0.12,0.93,0.23,1.4,0.35c-0.31,1.36-1.21,2.66-2.56,3.13c-1.37,0.44-2.95,0.39-4.21-0.34 c-1.46-0.87-2.07-2.65-2.16-4.27C87.36,85.76,87.95,83.74,89.55,82.74L89.55,82.74z"></path><path class="st4" d="M106.1,82.15c0.47,0,0.95,0,1.42,0c0,3.37,0,6.75,0,10.12c-0.48,0-0.95,0-1.43,0 C106.11,88.89,106.1,85.52,106.1,82.15L106.1,82.15z"></path><path class="st4" d="M134.98,82.13c0.44,0.01,0.89,0.02,1.34,0.02c0,2.96,0,5.92,0,8.87c1.66,0,3.31,0,4.96,0c0,0.41,0,0.83,0,1.24 c-2.11,0-4.22,0-6.33,0C134.97,88.89,134.93,85.51,134.98,82.13L134.98,82.13z"></path><path class="st4" d="M158.47,84.14c0.81-1.46,2.54-2.18,4.16-2.12c1.2-0.05,2.5,0.28,3.34,1.18c0.48,0.51,0.7,1.18,0.91,1.83 c-0.42,0.12-0.85,0.23-1.27,0.35c-0.24-0.58-0.44-1.24-0.99-1.61c-1.12-0.77-2.67-0.73-3.84-0.1c-1.25,0.71-1.69,2.26-1.69,3.62 c0,1.35,0.52,2.85,1.81,3.47c1.51,0.8,3.33,0.4,4.68-0.52c0.03-0.65,0.04-1.29,0.03-1.94c-0.98,0-1.95,0-2.92,0 c0-0.39,0-0.78,0-1.17c1.42,0,2.85,0,4.27,0c-0.03,1.27,0.08,2.56-0.05,3.82c-1.35,1.05-3.09,1.69-4.81,1.46 c-1.39-0.14-2.78-0.8-3.57-1.99C157.36,88.55,157.38,86.03,158.47,84.14L158.47,84.14z"></path><path class="st4" d="M213.71,82.24c0.41-0.22,0.97-0.04,1.44-0.06c-0.05,1.96-0.01,3.91-0.02,5.87c0.01,0.89,0.03,1.93,0.75,2.57 c0.89,0.7,2.19,0.66,3.21,0.29c0.94-0.37,1.13-1.51,1.18-2.4c0.04-2.12,0-4.24,0.01-6.36c0.45,0,0.91,0,1.37,0c0,2.13,0,4.27,0,6.4 c-0.01,1.19-0.33,2.52-1.39,3.22c-1.34,0.86-3.13,0.84-4.58,0.31c-1.24-0.45-1.84-1.78-1.89-3.02 C213.63,86.79,213.73,84.51,213.71,82.24L213.71,82.24z"></path><path class="st4" d="M256.77,82.15c0.47,0,0.95,0,1.42,0c0.01,3.37,0,6.74,0,10.12c-0.48,0-0.96,0-1.43,0 C256.77,88.89,256.77,85.52,256.77,82.15L256.77,82.15z"></path><path class="st4" d="M268.38,82.15c0.46,0,0.93,0,1.4,0c1.77,2.59,3.49,5.21,5.23,7.82c-0.01-2.59,0.02-5.19-0.02-7.78 c0.43-0.03,0.87-0.04,1.32-0.04c0.01,3.38,0,6.75,0.01,10.12c-0.48,0-0.95,0-1.42,0c-1.72-2.59-3.43-5.17-5.17-7.74 c0.01,2.58,0,5.16,0.01,7.74c-0.46,0-0.91,0-1.37,0C268.38,88.89,268.37,85.52,268.38,82.15L268.38,82.15z"></path><path class="st4" d="M287.88,82.91c1.77-1.25,4.59-1.33,6.08,0.4c0.43,0.47,0.67,1.07,0.9,1.65c-0.46,0.11-0.92,0.22-1.38,0.33 c-0.3-0.65-0.58-1.39-1.25-1.74c-1.44-0.8-3.54-0.27-4.25,1.27c-0.7,1.58-0.67,3.52,0.16,5.05c0.91,1.49,3.25,1.82,4.52,0.6 c0.52-0.47,0.75-1.16,0.94-1.81c0.46,0.12,0.93,0.24,1.4,0.35c-0.3,1.26-1.07,2.46-2.28,3.02c-1.26,0.55-2.75,0.51-4.02,0.02 c-1.6-0.65-2.39-2.38-2.58-4C285.88,86.22,286.3,84.08,287.88,82.91L287.88,82.91z"></path><path class="st4" d="M182.25,87.67c0.76-0.13,1.57-0.37,2.09-0.99c1.19-1.37,0.56-4.03-1.35-4.35c-2.03-0.35-4.1-0.09-6.14-0.17 c0,3.37,0,6.74,0,10.11c0.47,0,0.95,0,1.43,0c0-1.49,0-2.98,0-4.47c1.05,0.05,2.33-0.28,3.13,0.6c1.04,1.16,1.75,2.57,2.62,3.86 c0.58,0,1.16,0,1.75,0C184.67,90.69,183.94,88.72,182.25,87.67z M178.27,86.62c0-1.1,0-2.19,0-3.29c1.41,0.08,2.88-0.19,4.26,0.19 c1.26,0.41,1.26,2.39,0.03,2.85C181.18,86.81,179.7,86.55,178.27,86.62z"></path><path class="st4" d="M202.93,83.57c-1.24-1.49-3.39-1.85-5.19-1.36c-4.09,1.24-4.42,7.83-0.69,9.71c2.15,1.11,5.22,0.43,6.39-1.78 C204.51,88.1,204.4,85.38,202.93,83.57z M201.75,90.17c-1.15,1.33-3.44,1.43-4.69,0.19c-1.25-1.14-1.33-3.03-0.98-4.58 c0.2-1.1,1.05-2.03,2.1-2.38c1.08-0.4,2.4-0.19,3.26,0.59c0.9,0.73,1.22,1.96,1.26,3.07C202.72,88.16,202.5,89.33,201.75,90.17z"></path><path class="st4" d="M237.63,82.38c-1.91-0.44-3.9-0.13-5.85-0.24c-0.03,3.38-0.01,6.75-0.01,10.12c0.45,0,0.91,0,1.37,0 c0.01-1.37-0.02-2.74,0.02-4.11c1.62-0.07,3.36,0.28,4.89-0.42C240.11,86.69,239.95,83.01,237.63,82.38z M237.06,86.73 c-1.28,0.37-2.62,0.13-3.93,0.2c0-1.18,0-2.36,0-3.54c1.26,0.06,2.54-0.12,3.78,0.12C238.37,83.87,238.43,86.22,237.06,86.73z"></path><path class="st4" d="M56.8,82.16c-0.51-0.01-1.02-0.01-1.53,0.01c-1.27,3.37-2.58,6.73-3.86,10.09c0.5,0.01,1,0.01,1.49,0.01 c0.37-1.02,0.7-2.06,1.12-3.06c1.38,0.04,2.76,0.01,4.14,0.02c0.38,1.02,0.77,2.03,1.16,3.04c0.53,0,1.05-0.01,1.59-0.01 C59.55,88.89,58.16,85.53,56.8,82.16z M54.39,88.11c0.56-1.57,1.26-3.09,1.61-4.72c0.53,1.59,1.15,3.14,1.72,4.72 C56.61,88.11,55.5,88.11,54.39,88.11z"></path><path class="st4" d="M122.03,82.18c-0.52-0.03-1.03-0.03-1.54-0.02c-1.28,3.38-2.6,6.73-3.86,10.11c0.5,0,1,0,1.5-0.01 c0.32-1.02,0.72-2,1.05-3.01c1.4-0.03,2.79-0.02,4.19-0.01c0.37,1.01,0.77,2,1.13,3.01c0.53,0.02,1.07,0.02,1.6,0.02 C124.78,88.89,123.34,85.55,122.03,82.18z M119.6,88.1c0.57-1.52,1.13-3.05,1.66-4.58c0.5,1.55,1.1,3.06,1.67,4.58 C121.82,88.11,120.71,88.11,119.6,88.1z"></path></svg> 